<svg width="10" height="15" viewBox="0 0 10 15" fill="none" xmlns="http://www.w3.org/2000/svg">
<path d="M0 9C0 7.89543 0.895431 7 2 7C3.10457 7 4 7.89543 4 9V11C4 12.1046 3.10457 13 2 13C0.895431 13 0 12.1046 0 11V9Z" fill="#7D8696"/>
<path d="M6 5C6 3.89543 6.89543 3 8 3C9.10457 3 10 3.89543 10 5V10C10 11.1046 9.10457 12 8 12C6.89543 12 6 11.1046 6 10V5Z" fill="#7D8696"/>
<path d="M1 6C1 5.44772 1.44772 5 2 5C2.55228 5 3 5.44772 3 6V14C3 14.5523 2.55228 15 2 15C1.44772 15 1 14.5523 1 14V6Z" fill="#7D8696"/>
<path d="M7 1C7 0.447715 7.44772 0 8 0C8.55228 0 9 0.447715 9 1V10C9 10.5523 8.55228 11 8 11C7.44772 11 7 10.5523 7 10V1Z" fill="#7D8696"/>
</svg>
