<svg width="20" height="20" viewBox="0 0 20 20" fill="none" xmlns="http://www.w3.org/2000/svg">
<path d="M16.3636 2.27591V17.7241C16.3636 17.9786 16.5673 18.1818 16.8191 18.1818H17.7264C17.9791 18.1818 18.1818 17.9782 18.1818 17.7241V2.27591C18.1818 2.02136 17.9782 1.81818 17.7264 1.81818H16.8191C16.5664 1.81818 16.3636 2.02182 16.3636 2.27591ZM14.5455 2.27591C14.5451 1.97712 14.6036 1.6812 14.7177 1.40506C14.8319 1.12892 14.9993 0.877982 15.2104 0.666603C15.4216 0.455223 15.6724 0.287547 15.9484 0.173166C16.2244 0.0587838 16.5203 -5.99146e-05 16.8191 4.57775e-08H17.7264C18.0251 -1.03488e-07 18.321 0.0588844 18.597 0.173287C18.873 0.28769 19.1237 0.455369 19.3349 0.666736C19.546 0.878103 19.7135 1.12902 19.8276 1.40513C19.9417 1.68124 20.0003 1.97714 20 2.27591V17.7241C20.0004 18.0229 19.9418 18.3188 19.8277 18.5949C19.7136 18.8711 19.5462 19.122 19.335 19.3334C19.1238 19.5448 18.8731 19.7125 18.597 19.8268C18.321 19.9412 18.0251 20.0001 17.7264 20H16.8191C16.5203 20 16.2245 19.9411 15.9485 19.8267C15.6725 19.7123 15.4217 19.5446 15.2106 19.3333C14.9994 19.1219 14.832 18.871 14.7179 18.5949C14.6037 18.3188 14.5452 18.0229 14.5455 17.7241V2.27591ZM4.58236e-08 7.72591C-5.99148e-05 7.42742 0.058725 7.13185 0.172993 6.8561C0.28726 6.58035 0.454769 6.32983 0.665937 6.11887C0.877105 5.90792 1.12779 5.74066 1.40365 5.62667C1.67952 5.51268 1.97515 5.45419 2.27364 5.45455H3.18091C3.78333 5.45491 4.36102 5.69419 4.78725 6.11991C5.21348 6.54563 5.45346 7.12303 5.45455 7.72545V17.7291C5.45455 18.0275 5.39572 18.3231 5.28142 18.5988C5.16713 18.8745 4.99961 19.1249 4.78845 19.3358C4.57728 19.5467 4.32662 19.714 4.05079 19.8279C3.77495 19.9419 3.47936 20.0004 3.18091 20H2.27364C1.67121 19.9996 1.09353 19.7604 0.667294 19.3346C0.241061 18.9089 0.00108322 18.3315 4.58236e-08 17.7291V7.72545V7.72591ZM1.81818 7.72591V17.7291C1.81818 17.9764 2.02364 18.1818 2.27364 18.1818H3.18091C3.24059 18.1822 3.29976 18.1707 3.355 18.1481C3.41024 18.1256 3.46047 18.0923 3.5028 18.0502C3.54513 18.0081 3.57872 17.9581 3.60164 17.903C3.62456 17.8479 3.63636 17.7888 3.63636 17.7291V7.72545C3.63636 7.47818 3.43091 7.27273 3.18091 7.27273H2.27364C2.21395 7.27237 2.15479 7.28381 2.09955 7.3064C2.0443 7.32899 1.99407 7.36228 1.95175 7.40436C1.90942 7.44643 1.87582 7.49646 1.8529 7.55157C1.82998 7.60668 1.81818 7.66577 1.81818 7.72545V7.72591ZM7.27273 13.1859C7.27231 12.8871 7.33081 12.5911 7.44488 12.3148C7.55896 12.0386 7.72636 11.7876 7.93753 11.5761C8.1487 11.3647 8.39949 11.1969 8.67554 11.0825C8.9516 10.968 9.24752 10.9091 9.54636 10.9091H10.4536C10.7526 10.9089 11.0486 10.9677 11.3248 11.0821C11.6009 11.1966 11.8518 11.3644 12.063 11.5759C12.2742 11.7875 12.4416 12.0386 12.5556 12.3149C12.6696 12.5913 12.7279 12.8874 12.7273 13.1864V17.7227C12.7277 18.0216 12.6693 18.3177 12.5552 18.5939C12.4412 18.8702 12.2738 19.1213 12.0626 19.3328C11.8515 19.5443 11.6006 19.7121 11.3246 19.8266C11.0485 19.9411 10.7525 20 10.4536 20H9.54636C9.24743 20.0002 8.9514 19.9414 8.67523 19.8269C8.39906 19.7125 8.14818 19.5447 7.93697 19.3332C7.72576 19.1216 7.55837 18.8705 7.44439 18.5941C7.3304 18.3178 7.27207 18.0217 7.27273 17.7227V13.1864V13.1859ZM9.09091 13.1859V17.7232C9.09031 17.7833 9.10165 17.843 9.12429 17.8987C9.14692 17.9544 9.1804 18.005 9.22277 18.0477C9.26514 18.0904 9.31556 18.1242 9.37111 18.1472C9.42666 18.1702 9.48623 18.182 9.54636 18.1818H10.4536C10.7059 18.1818 10.9091 17.9777 10.9091 17.7227V13.1864C10.9098 13.1262 10.8985 13.0665 10.8758 13.0107C10.8532 12.955 10.8198 12.9043 10.7774 12.8615C10.735 12.8188 10.6846 12.785 10.629 12.7619C10.5734 12.7389 10.5138 12.7271 10.4536 12.7273H9.54636C9.29409 12.7273 9.09091 12.9314 9.09091 13.1864V13.1859Z" fill="#7D8696"/>
</svg>
