<svg width="14" height="14" viewBox="0 0 14 14" fill="none" xmlns="http://www.w3.org/2000/svg">
<path d="M14 7C14 10.866 10.866 14 7 14C3.13401 14 0 10.866 0 7C0 3.13401 3.13401 0 7 0C10.866 0 14 3.13401 14 7Z" fill="#0066FF"/>
<path d="M4 4.6C4 4.26863 4.26863 4 4.6 4C4.93137 4 5.2 4.26863 5.2 4.6V9.4C5.2 9.73137 4.93137 10 4.6 10C4.26863 10 4 9.73137 4 9.4V4.6Z" fill="white"/>
<path d="M6.39996 4.6C6.39996 4.26863 6.66859 4 6.99996 4C7.33133 4 7.59996 4.26863 7.59996 4.6V9.4C7.59996 9.73137 7.33133 10 6.99996 10C6.66859 10 6.39996 9.73137 6.39996 9.4V4.6Z" fill="white"/>
<path d="M8.79993 4.6C8.79993 4.26863 9.06856 4 9.39993 4C9.7313 4 9.99993 4.26863 9.99993 4.6V9.4C9.99993 9.73137 9.7313 10 9.39993 10C9.06856 10 8.79993 9.73137 8.79993 9.4V4.6Z" fill="white"/>
</svg>
