<svg width="30" height="30" viewBox="0 0 30 30" fill="none" xmlns="http://www.w3.org/2000/svg">
<path d="M0 6C0 2.68629 2.68629 0 6 0H24C27.3137 0 30 2.68629 30 6V24C30 27.3137 27.3137 30 24 30H6C2.68629 30 0 27.3137 0 24V6Z" fill="#333A47"/>
<path d="M4 7C4 5.89543 4.89543 5 6 5H9C10.1046 5 11 5.89543 11 7V10C11 11.1046 10.1046 12 9 12H6C4.89543 12 4 11.1046 4 10V7Z" fill="#F72F72"/>
<path d="M15 7C15 5.89543 15.8954 5 17 5H24C25.1046 5 26 5.89543 26 7V8C26 9.10457 25.1046 10 24 10H17C15.8954 10 15 9.10457 15 8V7Z" fill="white" fill-opacity="0.1"/>
<path d="M15 15C15 13.8954 15.8954 13 17 13H24C25.1046 13 26 13.8954 26 15V16C26 17.1046 25.1046 18 24 18H17C15.8954 18 15 17.1046 15 16V15Z" fill="white" fill-opacity="0.1"/>
<path d="M15 23C15 21.8954 15.8954 21 17 21H24C25.1046 21 26 21.8954 26 23V24C26 25.1046 25.1046 26 24 26H17C15.8954 26 15 25.1046 15 24V23Z" fill="white" fill-opacity="0.1"/>
<path d="M4 21C4 19.8954 4.89543 19 6 19H9C10.1046 19 11 19.8954 11 21V24C11 25.1046 10.1046 26 9 26H6C4.89543 26 4 25.1046 4 24V21Z" fill="#20C997"/>
</svg>
