<svg width="18" height="20" viewBox="0 0 18 20" fill="none" xmlns="http://www.w3.org/2000/svg">
<path d="M6 15.5C6 16.8807 4.88071 18 3.5 18C2.11929 18 1 16.8807 1 15.5C1 14.1193 2.11929 13 3.5 13C4.88071 13 6 14.1193 6 15.5Z" fill="#7D8696"/>
<path d="M14.5499 0.335938C13.6348 0.335938 12.7574 0.699428 12.1104 1.34645C11.4633 1.99347 11.0999 2.87092 11.0999 3.78602C11.0999 4.70091 11.4633 5.57857 12.1104 6.22538C12.7574 6.87242 13.6348 7.23589 14.5499 7.23589C15.4648 7.23589 16.3423 6.87241 16.9893 6.22538C17.6363 5.57857 17.9998 4.70091 17.9998 3.78602C17.999 2.87114 17.6353 1.99412 16.9884 1.34731C16.3416 0.700489 15.4647 0.336795 14.5499 0.335938ZM14.5499 5.43585C14.1122 5.43585 13.6926 5.26217 13.3831 4.95267C13.0738 4.64338 12.8999 4.22362 12.8999 3.78605C12.8999 3.34848 13.0738 2.9287 13.3831 2.61922C13.6926 2.30993 14.1122 2.13603 14.5499 2.13603C14.9875 2.13603 15.4071 2.30993 15.7166 2.61922C16.0261 2.92871 16.1997 3.34848 16.1997 3.78605C16.1997 4.22362 16.0261 4.6434 15.7166 4.95267C15.4071 5.26217 14.9875 5.43585 14.5499 5.43585Z" fill="#7D8696"/>
<path d="M16.1999 12.9364C16.1999 13.3342 16.0419 13.7157 15.7606 13.9969C15.4794 14.2782 15.0977 14.4364 14.6999 14.4364H11.472L13.2361 12.6723L11.9642 11.4004L8.66413 14.7005C8.49568 14.8694 8.40088 15.0979 8.40088 15.3362C8.40088 15.5748 8.49546 15.8035 8.66392 15.9724L11.964 19.2725L13.2359 18.0006L11.472 16.2363H14.6999C15.5752 16.2363 16.4146 15.8887 17.0334 15.2697C17.6524 14.6509 18 13.8115 18 12.9364V8.73633H16.1999L16.1999 12.9364Z" fill="#7D8696"/>
<path d="M17 3.5C17 4.88071 15.8807 6 14.5 6C13.1193 6 12 4.88071 12 3.5C12 2.11929 13.1193 1 14.5 1C15.8807 1 17 2.11929 17 3.5Z" fill="#7D8696"/>
<path d="M3.44999 12.0362C2.53511 12.0362 1.65767 12.3997 1.01063 13.0467C0.363602 13.6935 0.00012207 14.5712 0.00012207 15.4861C0.00012207 16.4012 0.363613 17.2786 1.01063 17.9256C1.65766 18.5727 2.53511 18.9361 3.44999 18.9361C4.36509 18.9361 5.24254 18.5727 5.88957 17.9256C6.5366 17.2786 6.90008 16.4012 6.90008 15.4861C6.89924 14.5714 6.53554 13.6944 5.88871 13.0475C5.24189 12.4007 4.36488 12.037 3.44999 12.0362ZM3.44999 17.1361C3.01242 17.1361 2.59286 16.9622 2.28338 16.6529C1.97388 16.3434 1.80019 15.9237 1.80019 15.4861C1.80019 15.0485 1.97388 14.6287 2.28338 14.3195C2.59287 14.01 3.01242 13.8361 3.44999 13.8361C3.88777 13.8361 4.30735 14.01 4.61683 14.3195C4.92611 14.6288 5.10001 15.0485 5.10001 15.4861C5.10001 15.9237 4.92611 16.3434 4.61683 16.6529C4.30733 16.9622 3.88778 17.1361 3.44999 17.1361Z" fill="#7D8696"/>
<path d="M1.06266e-05 9.93616H1.80011V6.33602C1.80011 5.93821 1.9581 5.55672 2.23935 5.27547C2.52059 4.99422 2.90229 4.83602 3.30011 4.83602H6.37209L4.8001 6.27012L5.99999 7.60206L9.30007 4.60208C9.48192 4.43634 9.58802 4.20343 9.59367 3.95756C9.59932 3.71169 9.5041 3.47396 9.33 3.30009L6.02991 0L4.75802 1.27188L6.52796 3.0362H3.30009C2.42474 3.0362 1.58538 3.38378 0.966583 4.00278C0.347569 4.62158 0 5.46093 0 6.33607L1.06266e-05 9.93616Z" fill="#7D8696"/>
</svg>
