<svg width="20" height="20" viewBox="0 0 20 20" fill="none" xmlns="http://www.w3.org/2000/svg">
<path d="M15.7627 6.44068H2.88136C2.11745 6.43978 1.38508 6.13592 0.84492 5.59576C0.304756 5.05559 0.000897133 4.32323 0 3.55932C0.000897495 2.61561 0.376185 1.7108 1.04349 1.04349C1.7108 0.376185 2.61561 0.000897495 3.55932 0L13.0508 0C13.9946 0.000897495 14.8994 0.376185 15.5667 1.04349C16.234 1.7108 16.6093 2.61561 16.6102 3.55932V5.59322C16.6102 5.81798 16.5209 6.03354 16.362 6.19246C16.203 6.35139 15.9875 6.44068 15.7627 6.44068ZM3.55932 1.69492C3.06513 1.69581 2.59143 1.89253 2.24198 2.24198C1.89253 2.59143 1.69581 3.06513 1.69492 3.55932C1.69491 3.87399 1.81991 4.17576 2.04242 4.39826C2.26492 4.62076 2.56669 4.74576 2.88136 4.74576H14.9153V3.55932C14.9144 3.06513 14.7176 2.59143 14.3682 2.24198C14.0187 1.89253 13.545 1.69581 13.0508 1.69492H3.55932Z" fill="#7D8696"/>
<path d="M16.4407 20H3.55932C2.61561 19.9991 1.7108 19.6238 1.04349 18.9565C0.376185 18.2892 0.000897495 17.3844 0 16.4406L0 3.55928C0 3.33452 0.0892855 3.11897 0.248215 2.96004C0.407144 2.80111 0.622698 2.71182 0.847458 2.71182C1.07222 2.71182 1.28777 2.80111 1.4467 2.96004C1.60563 3.11897 1.69492 3.33452 1.69492 3.55928V16.4406C1.69581 16.9348 1.89253 17.4085 2.24198 17.758C2.59143 18.1074 3.06513 18.3041 3.55932 18.305H16.4407C16.9349 18.3041 17.4086 18.1074 17.758 17.758C18.1075 17.4085 18.3042 16.9348 18.3051 16.4406V8.30504C18.3042 7.81085 18.1075 7.33715 17.758 6.9877C17.4086 6.63825 16.9349 6.44153 16.4407 6.44064H13.2475C13.0227 6.44064 12.8071 6.35135 12.6482 6.19242C12.4893 6.03349 12.4 5.81794 12.4 5.59318C12.4 5.36842 12.4893 5.15286 12.6482 4.99394C12.8071 4.83501 13.0227 4.74572 13.2475 4.74572H16.4407C17.3844 4.74662 18.2892 5.12191 18.9565 5.78921C19.6238 6.45652 19.9991 7.36133 20 8.30504V16.4406C19.9991 17.3844 19.6238 18.2892 18.9565 18.9565C18.2892 19.6238 17.3844 19.9991 16.4407 20Z" fill="#7D8696"/>
<path d="M19.1523 15.9322H13.7286C12.7846 15.9322 11.8793 15.5572 11.2118 14.8897C10.5443 14.2222 10.1693 13.3169 10.1693 12.3729C10.1693 11.4289 10.5443 10.5236 11.2118 9.85609C11.8793 9.18859 12.7846 8.81359 13.7286 8.81359H19.1523C19.3771 8.81359 19.5926 8.90288 19.7516 9.06181C19.9105 9.22073 19.9998 9.43629 19.9998 9.66105V15.0848C19.9998 15.3095 19.9105 15.5251 19.7516 15.684C19.5926 15.843 19.3771 15.9322 19.1523 15.9322ZM13.7286 10.5085C13.2341 10.5085 12.7599 10.7049 12.4103 11.0546C12.0606 11.4042 11.8642 11.8784 11.8642 12.3729C11.8642 12.8674 12.0606 13.3416 12.4103 13.6912C12.7599 14.0409 13.2341 14.2373 13.7286 14.2373H18.3049V10.5085H13.7286Z" fill="#7D8696"/>
<path d="M15.0848 13.3899C15.6464 13.3899 16.1017 12.9346 16.1017 12.373C16.1017 11.8113 15.6464 11.356 15.0848 11.356C14.5232 11.356 14.0678 11.8113 14.0678 12.373C14.0678 12.9346 14.5232 13.3899 15.0848 13.3899Z" fill="#7D8696"/>
</svg>
